<?xml version="1.0" encoding="utf-8"?>
<!-- Generator: Adobe Illustrator 26.3.1, SVG Export Plug-In . SVG Version: 6.00 Build 0)  -->
<svg version="1.1" id="Layer_1" xmlns="http://www.w3.org/2000/svg" xmlns:xlink="http://www.w3.org/1999/xlink" x="0px" y="0px"
	 width="85px" height="85px" viewBox="0 0 85 85" style="enable-background:new 0 0 85 85;" xml:space="preserve">
<style type="text/css">
	.st0{fill:#FFFFFF;}
</style>
<g id="g11214" transform="translate(9.1211e-8,-0.06154038)">
	<path id="path21882" class="st0" d="M42.5,1.1c-2.2,0-4.4,0.6-6.3,1.7c-7.9,4.7-22.3,13.3-30,17.9c-3.7,2.2-6.2,6.6-6.2,10.9v29.9
		h4.6V31.6c0-2.2,2.1-5.8,3.9-6.9c7.7-4.6,22.1-13.2,30-17.9c1.9-1.1,5.9-1.1,7.8,0c7.9,4.7,22.3,13.3,30,17.9
		c1.9,1.1,3.9,4.8,3.9,6.9c0,9.5,0,27.3,0,29.9h4.6c0-2.6,0-20.4,0-29.9c0-4.3-2.5-8.7-6.2-10.9c-7.7-4.6-22.1-13.2-30-17.9
		C46.9,1.7,44.7,1.1,42.5,1.1L42.5,1.1z"/>
	<path id="path21892" class="st0" d="M22.3,50.2L7.8,41.6v12.8l14.3,4.1c0.2,0.1,0.4,0,0.4-0.2c0,0,0-0.1,0-0.1
		c-0.1-0.3-0.1-0.6-0.2-0.9c-0.1-0.3-0.1-0.6-0.1-0.9c0-0.3-0.1-0.6-0.1-0.9c0-0.3,0-0.6-0.1-0.9c0-0.3,0-0.6,0-0.9c0-0.3,0-0.6,0-1
		c0-0.3,0-0.6,0.1-1c0-0.3,0.1-0.6,0.1-1C22.3,50.5,22.3,50.4,22.3,50.2z"/>
	<path id="path3130" class="st0" d="M15.8,25c-0.8,0.5-1.9,1.1-2.6,1.5c-0.2,0.1-0.4,0.2-0.6,0.4c-0.2,0.1-0.4,0.3-0.5,0.4
		c-0.2,0.1-0.3,0.3-0.5,0.5c-0.2,0.2-0.3,0.3-0.5,0.5c-0.2,0.2-0.3,0.4-0.5,0.5c-0.2,0.2-0.3,0.4-0.4,0.6c-0.1,0.2-0.3,0.4-0.4,0.6
		c-0.1,0.2-0.3,0.4-0.4,0.6c-0.1,0.2-0.2,0.4-0.3,0.7c-0.1,0.2-0.2,0.4-0.3,0.7c-0.1,0.2-0.2,0.5-0.3,0.7s-0.2,0.5-0.2,0.7
		c-0.1,0.2-0.1,0.5-0.2,0.7c0,0.1,0,0.2-0.1,0.3l15.2,11.6c0.1,0.1,0.3,0.1,0.4,0.1c0.1-0.3,0.2-0.6,0.4-0.9c0.2-0.3,0.3-0.7,0.5-1
		c0.2-0.3,0.4-0.6,0.5-1c0.2-0.3,0.4-0.6,0.6-0.9c0.2-0.3,0.4-0.6,0.6-0.9c0.2-0.3,0.5-0.6,0.7-0.9c0.1-0.1,0.3-0.3,0.4-0.4L15.8,25
		z"/>
	<path id="path3138" class="st0" d="M29.2,17c-3.2,1.9-6,3.6-9.1,5.4c0,0.1,0,0.2,0.1,0.2l9,15.5c0,0,0,0,0,0
		c0.3-0.2,0.5-0.4,0.8-0.7c0.3-0.2,0.6-0.4,0.8-0.6c0.3-0.2,0.6-0.4,0.9-0.6c0.3-0.2,0.6-0.4,0.9-0.5c0.3-0.2,0.6-0.3,0.9-0.5
		c0.2-0.1,0.4-0.2,0.7-0.3l-4.8-17.8C29.4,17.1,29.3,17,29.2,17z"/>
	<path id="path3148" class="st0" d="M55.8,17c-0.1,0-0.1,0.1-0.2,0.2L50.8,35c0.2,0.1,0.5,0.2,0.7,0.3c0.3,0.2,0.6,0.3,0.9,0.5
		c0.3,0.2,0.6,0.3,0.9,0.5c0.3,0.2,0.6,0.4,0.9,0.6c0.3,0.2,0.6,0.4,0.8,0.6c0.3,0.2,0.5,0.4,0.8,0.7c0,0,0,0,0,0l9-15.5
		c0-0.1,0.1-0.2,0.1-0.2C61.8,20.5,59,18.9,55.8,17z"/>
	<path id="path3143" class="st0" d="M42.5,10.9c-0.2,0-0.5,0-0.7,0c-0.2,0-0.5,0-0.7,0.1c-0.2,0-0.5,0.1-0.7,0.1
		c-0.2,0-0.5,0.1-0.7,0.1c-0.2,0.1-0.5,0.1-0.7,0.2c-0.2,0.1-0.4,0.1-0.6,0.2c-0.2,0.1-0.4,0.2-0.6,0.3c-0.2,0.1-0.4,0.2-0.6,0.3
		c-0.9,0.5-1.9,1.2-2.9,1.7l3.2,19.9c0.2-0.1,0.5-0.1,0.7-0.2c0.4-0.1,0.7-0.1,1.1-0.2c0.4-0.1,0.7-0.1,1.1-0.1
		c0.4,0,0.7-0.1,1.1-0.1c0.4,0,0.7,0,1.1,0c0.4,0,0.7,0,1.1,0c0.4,0,0.7,0,1.1,0.1c0.4,0,0.7,0.1,1.1,0.1c0.4,0.1,0.7,0.1,1.1,0.2
		c0.2,0.1,0.5,0.1,0.7,0.2L50.8,14c-1-0.6-2-1.2-2.9-1.7c-0.2-0.1-0.4-0.2-0.6-0.3c-0.2-0.1-0.4-0.2-0.6-0.3
		c-0.2-0.1-0.4-0.2-0.6-0.2c-0.2-0.1-0.4-0.1-0.7-0.2c-0.2-0.1-0.5-0.1-0.7-0.1c-0.2,0-0.5-0.1-0.7-0.1c-0.2,0-0.5,0-0.7-0.1
		C43,10.9,42.7,10.9,42.5,10.9L42.5,10.9z"/>
	<path id="path3153" class="st0" d="M69.2,25L57.7,40c0.1,0.1,0.3,0.3,0.4,0.4c0.2,0.3,0.5,0.6,0.7,0.9c0.2,0.3,0.4,0.6,0.6,0.9
		c0.2,0.3,0.4,0.6,0.6,0.9c0.2,0.3,0.4,0.6,0.5,1c0.2,0.3,0.3,0.7,0.5,1c0.1,0.3,0.3,0.6,0.4,0.9c0.1,0.1,0.3,0,0.4-0.1L77,34.2
		c0-0.1,0-0.2-0.1-0.3c-0.1-0.2-0.1-0.5-0.2-0.7c-0.1-0.2-0.1-0.5-0.2-0.7c-0.1-0.2-0.2-0.5-0.3-0.7c-0.1-0.2-0.2-0.4-0.3-0.7
		c-0.1-0.2-0.2-0.4-0.3-0.7c-0.1-0.2-0.2-0.4-0.4-0.6c-0.1-0.2-0.3-0.4-0.4-0.6c-0.1-0.2-0.3-0.4-0.4-0.6c-0.2-0.2-0.3-0.4-0.5-0.5
		c-0.2-0.2-0.3-0.3-0.5-0.5c-0.2-0.2-0.3-0.3-0.5-0.5c-0.2-0.1-0.4-0.3-0.5-0.4s-0.4-0.2-0.6-0.4C71.1,26.1,70,25.4,69.2,25z"/>
	<path id="path3009" class="st0" d="M62.4,58.2c0,0.2,0.2,0.3,0.4,0.2l14.3-4.1V41.6l-14.5,8.6c0,0.2,0.1,0.3,0.1,0.5
		c0,0.3,0.1,0.6,0.1,1c0,0.3,0.1,0.6,0.1,1c0,0.3,0,0.6,0,1c0,0.3,0,0.6,0,0.9c0,0.3,0,0.6-0.1,0.9c0,0.3-0.1,0.6-0.1,0.9
		c0,0.3-0.1,0.6-0.1,0.9c-0.1,0.3-0.1,0.6-0.2,0.9C62.5,58.1,62.4,58.2,62.4,58.2z"/>
	<path id="path10128" class="st0" d="M1.2,63.2c-0.7,0-1.2,0.6-1.2,1.3c0.1,0.6,0.6,1.1,1.2,1H5c0.7,0,1.2,0.6,1.2,1.3
		c-0.1,0.6-0.6,1.1-1.2,1H1.2c-0.7,0-1.2,0.6-1.2,1.3c0.1,0.6,0.6,1.1,1.2,1h8c0.7,0,1.2,0.6,1.2,1.3c-0.1,0.6-0.6,1.1-1.2,1H3.3
		c-0.7,0-1.2,0.6-1.2,1.3c0.1,0.6,0.6,1.1,1.2,1h18.6c0.7,0,1.2,0.6,1.2,1.3c-0.1,0.6-0.6,1.1-1.2,1H11.9c-0.7,0-1.2,0.6-1.2,1.3
		c0.1,0.6,0.6,1.1,1.2,1h18.6c0.7,0,1.2,0.6,1.2,1.3c-0.1,0.6-0.6,1.1-1.2,1c-0.5,0.2-0.9,0.7-0.7,1.3c0.1,0.6,0.6,1.1,1.2,1h11.5h0
		H54c0.6,0.1,1.2-0.4,1.2-1c0.1-0.6-0.2-1.2-0.7-1.3c-0.6,0.1-1.2-0.4-1.2-1c0-0.7,0.6-1.3,1.2-1.3h18.6c0.6,0.1,1.2-0.4,1.2-1
		c0-0.7-0.6-1.3-1.2-1.3H63.1c-0.6,0.1-1.2-0.4-1.2-1c0-0.7,0.6-1.3,1.2-1.3h18.6c0.6,0.1,1.2-0.4,1.2-1c0-0.7-0.6-1.3-1.2-1.3h-5.9
		c-0.6,0.1-1.2-0.4-1.2-1c0-0.7,0.6-1.3,1.2-1.3h8c0.6,0.1,1.2-0.4,1.2-1c0-0.7-0.6-1.3-1.2-1.3H80c-0.6,0.1-1.2-0.4-1.2-1
		c0-0.7,0.6-1.3,1.2-1.3h3.7c0.6,0.1,1.2-0.4,1.2-1c0-0.7-0.6-1.3-1.2-1.3H42.5h0H1.2z"/>
	<path id="path21551" class="st0" d="M42.5,36.4c-9.5,0-17.2,7.7-17.2,17.2c0,0,0,0,0,0c0,2.7,0.7,5.4,1.9,7.9h30.5
		c1.3-2.4,1.9-5.1,1.9-7.9C59.7,44.1,52,36.4,42.5,36.4C42.5,36.4,42.5,36.4,42.5,36.4z"/>
</g>
</svg>
